HIERARCHY
ROOT hip
{
  OFFSET 0 0 0
  CHANNELS 6 Xposition Yposition Zposition Zrotation Yrotation Xrotation
  JOINT abdomen
  {
    OFFSET 0 20.6881 -0.73152
    CHANNELS 3 Zrotation Xrotation Yrotation
    JOINT chest
    {
      OFFSET 0 11.7043 -0.48768
      CHANNELS 3 Zrotation Xrotation Yrotation
      JOINT neck
      {
        OFFSET 0 22.1894 -2.19456
        CHANNELS 3 Zrotation Xrotation Yrotation
        JOINT head
        {
          OFFSET -0.24384 7.07133 1.2192
          CHANNELS 3 Zrotation Xrotation Yrotation
          JOINT leftEye
          {
            OFFSET 4.14528 8.04674 8.04672
            CHANNELS 3 Zrotation Xrotation Yrotation
            End Site
            {
              OFFSET 1 0 0
            }
          }
          JOINT rightEye
          {
            OFFSET -3.6576 8.04674 8.04672
            CHANNELS 3 Zrotation Xrotation Yrotation
            End Site
            {
              OFFSET 1 0 0
            }
          }
        }
      }
      JOINT rCollar
      {
        OFFSET -2.68224 19.2634 -4.8768
        CHANNELS 3 Zrotation Xrotation Yrotation
        JOINT rShldr
        {
          OFFSET -8.77824 -1.95073 1.46304
          CHANNELS 3 Zrotation Xrotation Yrotation
          JOINT rForeArm
          {
            OFFSET -28.1742 -1.7115 0.48768
            CHANNELS 3 Zrotation Xrotation Yrotation
            JOINT rHand
            {
              OFFSET -22.5879 0.773209 7.07136
              CHANNELS 3 Zrotation Xrotation Yrotation
              JOINT rThumb1
              {
                OFFSET -1.2192 -0.487915 3.41376
                CHANNELS 3 Zrotation Xrotation Yrotation
                JOINT rThumb2
                {
                  OFFSET -3.37035 -0.52449 3.41376
                  CHANNELS 3 Zrotation Xrotation Yrotation
                  End Site
                  {
                    OFFSET -1.78271 -1.18214 1.43049
                  }
                }
              }
              JOINT rIndex1
              {
                OFFSET -7.75947 0.938293 5.60832
                CHANNELS 3 Zrotation Xrotation Yrotation
                JOINT rIndex2
                {
                  OFFSET -2.54057 -0.884171 1.56538
                  CHANNELS 3 Zrotation Xrotation Yrotation
                  End Site
                  {
                    OFFSET -1.62519 -0.234802 1.16502
                  }
                }
              }
              JOINT rMid1
              {
                OFFSET -8.24714 1.18213 3.41376
                CHANNELS 3 Zrotation Xrotation Yrotation
                JOINT rMid2
                {
                  OFFSET -3.10165 -0.590103 1.0647
                  CHANNELS 3 Zrotation Xrotation Yrotation
                  End Site
                  {
                    OFFSET -2.48547 -0.328903 0.83742
                  }
                }
              }
              JOINT rRing1
              {
                OFFSET -8.82822 0.546677 1.51678
                CHANNELS 3 Zrotation Xrotation Yrotation
                JOINT rRing2
                {
                  OFFSET -2.60934 -0.819778 -0.0198488
                  CHANNELS 3 Zrotation Xrotation Yrotation
                  End Site
                  {
                    OFFSET -2.33842 -0.294052 0.168128
                  }
                }
              }
              JOINT rPinky1
              {
                OFFSET -8.27202 -0.0477905 -0.4584
                CHANNELS 3 Zrotation Xrotation Yrotation
                JOINT rPinky2
                {
                  OFFSET -1.82734 -0.647385 -0.700984
                  CHANNELS 3 Zrotation Xrotation Yrotation
                  End Site
                  {
                    OFFSET -1.69225 -0.51767 -0.607171
                  }
                }
              }
            }
          }
        }
      }
      JOINT lCollar
      {
        OFFSET 2.68224 19.2634 -4.8768
        CHANNELS 3 Zrotation Xrotation Yrotation
        JOINT lShldr
        {
          OFFSET 8.77824 -1.95073 1.46304
          CHANNELS 3 Zrotation Xrotation Yrotation
          JOINT lForeArm
          {
            OFFSET 28.1742 -1.7115 0.48768
            CHANNELS 3 Zrotation Xrotation Yrotation
            JOINT lHand
            {
              OFFSET 22.5879 0.773209 7.07136
              CHANNELS 3 Zrotation Xrotation Yrotation
              JOINT lThumb1
              {
                OFFSET 1.2192 -0.487915 3.41376
                CHANNELS 3 Zrotation Xrotation Yrotation
                JOINT lThumb2
                {
                  OFFSET 3.37035 -0.52449 3.41376
                  CHANNELS 3 Zrotation Xrotation Yrotation
                  End Site
                  {
                    OFFSET 1.78271 -1.18214 1.43049
                  }
                }
              }
              JOINT lIndex1
              {
                OFFSET 7.75947 0.938293 5.60832
                CHANNELS 3 Zrotation Xrotation Yrotation
                JOINT lIndex2
                {
                  OFFSET 2.54057 -0.884171 1.56538
                  CHANNELS 3 Zrotation Xrotation Yrotation
                  End Site
                  {
                    OFFSET 1.62519 -0.234802 1.16502
                  }
                }
              }
              JOINT lMid1
              {
                OFFSET 8.24714 1.18213 3.41376
                CHANNELS 3 Zrotation Xrotation Yrotation
                JOINT lMid2
                {
                  OFFSET 3.10165 -0.590103 1.0647
                  CHANNELS 3 Zrotation Xrotation Yrotation
                  End Site
                  {
                    OFFSET 2.48547 -0.328903 0.83742
                  }
                }
              }
              JOINT lRing1
              {
                OFFSET 8.82822 0.546677 1.51678
                CHANNELS 3 Zrotation Xrotation Yrotation
                JOINT lRing2
                {
                  OFFSET 2.60934 -0.819778 -0.0198488
                  CHANNELS 3 Zrotation Xrotation Yrotation
                  End Site
                  {
                    OFFSET 2.33842 -0.294052 0.168128
                  }
                }
              }
              JOINT lPinky1
              {
                OFFSET 8.27202 -0.0477905 -0.4584
                CHANNELS 3 Zrotation Xrotation Yrotation
                JOINT lPinky2
                {
                  OFFSET 1.82734 -0.647385 -0.700984
                  CHANNELS 3 Zrotation Xrotation Yrotation
                  End Site
                  {
                    OFFSET 1.69225 -0.51767 -0.607171
                  }
                }
              }
            }
          }
        }
      }
    }
  }
  JOINT rButtock
  {
    OFFSET -8.77824 4.35084 1.2192
    CHANNELS 3 Zrotation Xrotation Yrotation
    JOINT rThigh
    {
      OFFSET 0 -1.70687 -2.19456
      CHANNELS 3 Zrotation Xrotation Yrotation
      JOINT rShin
      {
        OFFSET 0 -36.8199 0.73152
        CHANNELS 3 Zrotation Xrotation Yrotation
        JOINT rFoot
        {
          OFFSET 0.73152 -45.1104 -5.12064
          CHANNELS 3 Zrotation Xrotation Yrotation
          End Site
          {
            OFFSET -1.1221 -3.69964 12.103
          }
        }
      }
    }
  }
  JOINT lButtock
  {
    OFFSET 8.77824 4.35084 1.2192
    CHANNELS 3 Zrotation Xrotation Yrotation
    JOINT lThigh
    {
      OFFSET 0 -1.70687 -2.19456
      CHANNELS 3 Zrotation Xrotation Yrotation
      JOINT lShin
      {
        OFFSET 0 -36.8199 0.73152
        CHANNELS 3 Zrotation Xrotation Yrotation
        JOINT lFoot
        {
          OFFSET -0.73152 -45.1104 -5.12064
          CHANNELS 3 Zrotation Xrotation Yrotation
          End Site
          {
            OFFSET 1.1221 -3.69964 12.103
          }
        }
      }
    }
  }
}
MOTION
Frames:	7
Frame Time:	0.03333
8.2179 65.7697 -13.1542 -175.203793 -34.458767 -171.602602 -6.552354 10.155726 -0.0 6.131289 -16.051373 13.689039 17.912049 2.62025 57.528152 -2.142245 1.428185 -81.009007 43.903663 -18.791723 -44.641959 -5.984632 0.14731 -2.817513 -156.135779 6.594567 167.885927 -169.516955 -75.689612 -170.342319 161.404923 44.013991 53.636599 164.542349 -19.114672 147.288359 17.884589 0.356664 -6.58683 -144.512956 -28.861435 84.328499 -151.880838 -1.045552 101.968832 -0.04609 -8.821264 35.959273 -30.430566 -10.812025 9.731107 158.888298 79.479757 -147.163617 -44.349438 82.990437 69.312446 -136.477194 -21.020975 -175.5516 178.72254 5.482311 -169.152547 -36.082267 -30.938977 88.385262 -1.171905 -0.765562 -1.235874 -91.261298 -65.478966 -87.337738 -73.584553 -56.694217 89.102369 173.388452 11.529394 -142.931699 73.789294 51.336875 -41.085522 -94.277959 -71.147936 -55.514992 -80.309952 -68.576755 -26.333774 -4.412964 -32.665155 -39.890157 164.774268 -49.903465 -154.78697 -152.700748 -58.989959 -97.780382 14.832687 -45.001163 10.031533 -52.834347 49.054076 53.838458 22.947826 -38.014905 26.189839 54.182129 -16.921239 44.029805 -151.373046 73.306084 -23.012397 168.725582 29.046693 -157.676946 -50.683842 -54.021102 -124.826593 160.984683 50.230107 126.328827 -14.553435 12.765421 -18.264017 81.225214 -30.345889 74.870622 -5.023561 81.506697 92.842419 -175.292205 -1.567823 76.512029
7.077700000000001 65.9044 -12.7113 -175.033093 -35.014548 -172.093498 -5.143092 4.976788 -133.945469 5.162062 11.860056 146.28308 18.732528 0.580545 63.514144 -0.578604 4.043993 -87.634867 120.338672 26.025479 -43.901554 -8.387018 0.392682 -5.351748 -156.604135 -2.109384 170.625006 -174.930979 -0.007298 179.717656 173.272772 -26.125011 35.108896 159.524295 -29.42071 145.778802 -171.539665 -26.533519 93.647121 -161.260213 -28.71275 124.6619 -88.448909 28.554635 56.672961 -146.249799 -47.646349 85.53265 169.094521 0.141496 138.338384 14.758567 -35.178071 27.106154 2.968971 2.62531 -5.57718 49.339866 55.928734 -34.433655 -177.007092 -39.475552 -147.117876 -71.276761 -69.284249 32.941804 159.235095 -30.386946 -162.811713 147.934815 -10.052063 178.034541 112.436187 -40.286279 -63.727956 -78.059054 -76.606188 -61.779703 -86.454197 -64.152088 -29.563107 2.185688 -13.437326 -9.417183 -36.703663 -36.760008 2.434554 123.628155 48.631908 -39.903699 154.072322 20.989073 -145.873047 21.687736 61.973273 -31.065043 9.708558 -2.546657 -10.404034 129.392362 -9.031211 148.68021 76.909856 -40.369756 81.151202 26.301485 7.347575 8.985682 -178.112748 73.701244 -0.0 177.372108 28.795736 -174.557019 -4.273839 -64.961131 101.0084 -68.226638 -71.365339 26.600649 2.713803 8.413686 -3.853611 59.359627 -46.317487 51.520399 -68.766386 60.329646 -3.296499 -179.968513 -46.359704 -91.332218
5.943099999999999 66.30749999999999 -12.570500000000001 -174.494796 -36.600241 -174.173797 -3.509726 8.852697 -33.237951 11.985227 -12.128066 46.303256 2.568669 3.417161 -79.027372 4.210213 8.457391 60.644453 139.500115 12.22724 -32.379638 -17.407135 1.13845 -7.426539 -86.895538 74.215165 89.286522 -105.364338 65.599704 106.945451 -171.867418 -20.892938 -70.805941 -9.560836 44.22974 10.891002 -3.079337 -0.551171 -0.388312 62.841011 -52.449569 2.206181 65.148419 -65.520852 48.77391 -44.904752 -54.782295 -74.783353 -5.54649 -84.17912 -9.370932 -7.197687 -5.939728 -9.878954 -129.889659 -53.519205 -137.841858 -97.360401 -55.120454 -86.153249 -143.974305 -55.875004 -117.364339 -128.285046 -52.327505 -18.209114 138.950872 36.489499 -141.7081 167.297348 1.494847 170.080744 119.131173 -85.009954 -86.096264 -174.361917 -28.455049 -142.77233 -10.459273 2.394283 13.141396 1.307385 -37.748213 -13.10973 74.468929 35.579459 -82.561732 -31.816881 -2.460807 59.221987 164.836718 -50.160328 -157.368821 117.154385 41.777993 -107.826072 116.814849 46.413366 -129.169072 -41.870332 7.663742 -18.583018 26.179004 -26.106971 48.646963 84.143847 -44.006768 62.408487 -0.362027 7.401858 0.508237 0.522258 -46.063945 19.162736 49.851238 52.068305 119.393866 120.392416 7.440325 -171.776372 8.946122 7.071873 4.77102 42.303397 -55.229808 -180.0 83.977135 -39.660417 -2.059984 -126.83161 -74.238436 148.858811
4.7219 66.00120000000001 -12.6744 -173.862232 -37.989864 -175.443727 -1.004169 6.027518 -42.212647 11.153315 -10.901509 54.579258 5.77396 6.849364 -111.42459 6.859691 6.689631 97.837868 150.573759 9.369388 -34.662999 -28.74494 3.780944 -14.679756 -158.249392 -28.88889 170.962083 -4.369441 -44.555261 -9.2993 6.273584 43.307807 -145.198937 153.31121 -37.014958 146.153279 -75.387185 37.954714 27.721912 17.548131 -20.229161 47.189568 -155.482695 28.867653 99.035975 -101.435089 5.536643 49.475705 -167.58922 32.988884 146.744939 -163.46991 -33.761939 136.071087 -38.828598 -20.957125 -18.112671 74.268046 -1.463555 -41.847993 -141.473755 -51.600757 -118.34253 -111.427903 0.009295 15.769372 169.013531 -49.794454 -159.776667 -29.389784 1.36849 -4.968357 176.436167 11.616737 63.621553 14.108651 17.127842 0.915851 150.715613 0.406348 -99.352059 157.38831 -40.172432 -111.272433 -17.819811 16.859841 -11.070851 83.032094 83.900128 -18.689721 -4.47618 -24.893848 11.828364 -1.186735 -19.439984 2.139073 1.656428 -4.827956 -20.263219 -93.310681 52.729481 91.120742 70.39706 -22.000323 85.506503 149.326938 -36.763517 149.612097 0.124397 8.773451 -0.177042 3.536976 -45.045335 2.554251 8.378879 60.185987 -110.286484 11.42733 -45.320288 102.920918 -161.22753 71.448359 -19.723845 -154.117427 13.577681 -5.964935 -7.969754 82.982387 89.123147 -82.779591 59.423272 -25.17904
3.4663 66.67840000000001 -13.0567 -173.648344 -38.503784 -175.777716 -1.444092 3.155555 -0.0 1.312843 -14.131535 11.178289 22.717143 -5.836127 66.072216 -5.874362 12.70655 -71.933879 157.209858 8.220774 -39.248367 -44.860259 5.832818 -14.071442 -158.200799 -3.06195 164.259729 179.898179 -21.178945 179.264729 -13.436916 -4.432875 107.894137 -1.717712 27.303785 10.067474 176.125418 0.899712 92.086361 -79.139069 -82.888353 -59.763836 158.081495 -44.281995 133.048129 -43.17033 -76.963002 -47.638039 -100.863108 74.913106 84.927743 1.80509 61.422378 3.4357 -112.705158 -62.411626 -84.254232 -42.500677 11.965362 -83.447455 -18.698907 14.709999 20.12136 98.984099 -37.802901 -37.055916 125.185627 49.392923 -124.136004 3.253936 -13.405611 11.214815 128.908017 -10.4989 9.684754 -36.43627 -71.068334 -20.27904 89.231293 43.620764 -58.476974 23.580619 1.155582 -18.214107 25.408354 41.272472 -48.772719 169.646282 -1.616007 -164.434572 -5.014787 -45.12448 11.386722 -2.504892 -26.053807 9.130558 -8.640058 -44.903114 -8.83913 -154.495797 18.311196 165.572939 31.629153 -20.984844 51.620087 19.354699 -27.626109 0.759459 -172.779116 68.03846 -3.52233 179.475026 32.623845 0.274246 6.539384 56.860105 -83.8325 51.006909 36.801546 30.399749 -138.524687 70.947248 -43.081821 -161.947094 17.162027 -0.0 61.17222 79.007635 36.992142 -30.871544 34.654023 -88.267414
2.2789 67.4046 -13.7198 -174.147418 -38.766342 -175.803778 0.579411 -0.824278 -83.018999 10.607205 -2.540169 94.422597 23.722271 -1.505321 101.480609 -5.403704 16.201796 -103.118038 160.112451 8.336837 -45.146805 -68.040697 -0.181294 0.268573 -64.804866 -84.566331 -82.732124 19.066707 12.884584 -8.618061 -2.486957 -77.050745 -145.74247 153.169184 -38.738082 143.349502 -8.116303 -13.605483 -1.236805 -83.118445 -25.255927 139.978977 -121.784516 56.115685 63.219792 112.539818 -12.022003 43.609376 -7.074892 19.331181 -10.784555 -6.869158 -19.807305 -17.448884 -53.01044 -9.640845 -12.553412 -50.464815 -11.813349 -155.503818 -20.878857 -38.359626 5.193128 -162.830837 -3.502705 -26.308938 32.926668 46.817709 -34.181815 -166.091419 -52.444642 -170.823444 16.188021 82.035337 -137.084168 6.750704 5.147745 2.884873 2.323554 7.681627 0.726584 4.765258 9.475537 1.365816 -0.42833 33.42304 -25.049306 116.890158 -76.657371 139.807939 163.273438 14.836517 -142.85208 59.412371 41.831597 -52.068616 14.483172 27.946503 -25.750289 -99.802832 51.476171 80.648169 -9.309297 21.998152 18.951427 140.892285 3.826272 128.206582 -138.652909 66.404021 -23.932037 160.666056 30.350081 -145.224472 -52.832382 -45.336924 -96.518204 -22.485272 9.636423 -154.239009 93.616855 69.839948 53.130082 -124.773205 3.14875 92.184096 85.861431 -24.211334 147.587352 56.131892 -22.081768 133.060905
1.2210999999999999 68.241 -14.6148 -175.261138 -39.005505 -175.895583 -1.172068 -0.92833 -88.388806 10.520041 -0.6551 99.180204 7.480451 -11.549662 -9.182454 1.690686 -1.569206 8.675 160.402987 9.812821 -52.8598 -102.760188 19.13652 23.830446 -149.110369 40.532159 149.57409 176.791096 -0.097642 162.960585 177.519189 -63.608405 34.28004 157.944311 -32.352848 144.2931 -119.641364 33.329748 56.948274 -175.812742 -15.039162 26.833581 -149.16601 51.618216 89.577 -171.53797 -2.334265 57.682512 -165.343341 -36.643724 162.319987 -104.335908 46.337361 99.080835 -122.336626 -64.260589 -85.552082 -46.800247 23.999032 -91.092974 -39.29664 57.806519 64.222925 111.984518 -53.149895 5.440982 84.826509 60.252985 -84.598119 22.662076 -61.99904 17.271753 12.753838 -33.569745 -109.268362 -2.953591 -16.155744 2.195514 -81.233549 -48.979093 -32.981798 126.916209 -62.612613 160.578586 -26.549415 4.334048 -1.56445 98.311506 59.610659 -37.074887 157.821639 33.887356 -133.560213 -6.208497 -2.157562 -29.211979 153.685111 -45.388257 172.057062 -45.28124 -53.177989 -51.742785 62.358294 -31.02339 43.096253 135.648083 -22.26849 103.602113 172.833401 71.026112 7.573703 -173.460536 35.910858 -0.0 12.98536 61.025712 -128.388923 108.966615 -66.005976 -152.103741 46.581351 24.999634 49.706958 -69.268506 -31.738698 -148.306754 -75.404196 -29.732486 46.655741 27.735779 2.50282 47.352591
